<?xml version="1.0" encoding="UTF-8" standalone="no"?>
<!DOCTYPE svg PUBLIC "-//W3C//DTD SVG 1.1//EN" "http://www.w3.org/Graphics/SVG/1.1/DTD/svg11.dtd">
<svg version="1.1" xmlns="http://www.w3.org/2000/svg" xmlns:xlink="http://www.w3.org/1999/xlink" preserveAspectRatio="xMidYMid meet" viewBox="0 0 380 500" width="380" height="500"><defs><path d="M0 0L380.45 0L380.45 501.34L0 501.34L0 0Z" id="o1HuiigmS"></path><path d="M380.45 82.09C380.45 186.46 295.21 271.19 190.22 271.19C85.24 271.19 0 186.46 0 82.09C0 -22.28 85.24 -107.01 190.22 -107.01C295.21 -107.01 380.45 -22.28 380.45 82.09Z" id="a169mEAavf"></path><path d="M0 -33.73L380.45 -33.73L380.45 93.13L0 93.13L0 -33.73Z" id="brlV7lRUv"></path><path d="M63.96 270.41L90 287.4L116.04 270.41L116.04 242.44L90 226.45L63.96 242.44L63.96 270.41Z" id="f1wz0pjWHl"></path><path d="M164.19 272.66L190.22 289.64L216.26 272.66L216.26 244.68L190.22 228.7L164.19 244.68L164.19 272.66Z" id="b2D67orBBc"></path><path d="M261.05 272.66L287.08 289.64L313.12 272.66L313.12 244.68L287.08 228.7L261.05 244.68L261.05 272.66Z" id="a6MODcup5"></path></defs><g><g><g><use xlink:href="#o1HuiigmS" opacity="1" fill="#d3d3d3" fill-opacity="1"></use></g><g><use xlink:href="#a169mEAavf" opacity="1" fill="#6495ed" fill-opacity="1"></use></g><g><use xlink:href="#brlV7lRUv" opacity="1" fill="#6495ed" fill-opacity="1"></use></g><g><use xlink:href="#f1wz0pjWHl" opacity="1" fill="#7fffd4" fill-opacity="1"></use><g><use xlink:href="#f1wz0pjWHl" opacity="1" fill-opacity="0" stroke="#000000" stroke-width="0" stroke-opacity="1"></use></g></g><g><use xlink:href="#b2D67orBBc" opacity="1" fill="#7fffd4" fill-opacity="1"></use><g><use xlink:href="#b2D67orBBc" opacity="1" fill-opacity="0" stroke="#000000" stroke-width="0" stroke-opacity="1"></use></g></g><g><use xlink:href="#a6MODcup5" opacity="1" fill="#7fffd4" fill-opacity="1"></use><g><use xlink:href="#a6MODcup5" opacity="1" fill-opacity="0" stroke="#000000" stroke-width="0" stroke-opacity="1"></use></g></g></g></g></svg>