<?xml version="1.0" encoding="UTF-8" standalone="no"?>
<!DOCTYPE svg PUBLIC "-//W3C//DTD SVG 1.1//EN" "http://www.w3.org/Graphics/SVG/1.1/DTD/svg11.dtd">
<svg version="1.1" xmlns="http://www.w3.org/2000/svg" xmlns:xlink="http://www.w3.org/1999/xlink" preserveAspectRatio="xMidYMid meet" viewBox="0 0 640 382" width="640" height="382"><defs><path d="M0 0L145.39 0L145.39 381.56L0 381.56L0 0Z" id="f1H7ooHyK"></path><path d="M164.61 0L310 0L310 381.56L164.61 381.56L164.61 0Z" id="bbiTnywiw"></path><path d="M329.22 0L474.61 0L474.61 381.56L329.22 381.56L329.22 0Z" id="a6DDqdfjpN"></path><path d="M494.61 0L640 0L640 381.56L494.61 381.56L494.61 0Z" id="d3TqmQf4Aa"></path><path d="M164.61 0L474.61 0L474.61 182.06L164.61 182.06L164.61 0Z" id="c3tnwpg6ND"></path><path d="M0 199.5L310 199.5L310 381.56L0 381.56L0 199.5Z" id="f89XVT1Fc"></path><path d="M329.22 199.5L639.22 199.5L639.22 381.56L329.22 381.56L329.22 199.5Z" id="a4TGnQfiv"></path><path d="M0 0L145.39 0L145.39 182.06L0 182.06L0 0Z" id="i5fqRysi1D"></path><path d="M493.83 0L639.22 0L639.22 182.06L493.83 182.06L493.83 0Z" id="bqQ0rJDvY"></path></defs><g><g><g><use xlink:href="#f1H7ooHyK" opacity="1" fill="#6495ed" fill-opacity="1"></use></g><g><use xlink:href="#bbiTnywiw" opacity="1" fill="#6495ed" fill-opacity="1"></use></g><g><use xlink:href="#a6DDqdfjpN" opacity="1" fill="#6495ed" fill-opacity="1"></use></g><g><use xlink:href="#d3TqmQf4Aa" opacity="1" fill="#6495ed" fill-opacity="1"></use></g><g><use xlink:href="#c3tnwpg6ND" opacity="1" fill="#cfb5f6" fill-opacity="0.65"></use><g><use xlink:href="#c3tnwpg6ND" opacity="1" fill-opacity="0" stroke="#d575f4" stroke-width="2" stroke-opacity="1"></use></g></g><g><use xlink:href="#f89XVT1Fc" opacity="1" fill="#f6cdb5" fill-opacity="0.65"></use><g><use xlink:href="#f89XVT1Fc" opacity="1" fill-opacity="0" stroke="#d575f4" stroke-width="2" stroke-opacity="1"></use></g></g><g><use xlink:href="#a4TGnQfiv" opacity="1" fill="#f6cdb5" fill-opacity="0.65"></use><g><use xlink:href="#a4TGnQfiv" opacity="1" fill-opacity="0" stroke="#d575f4" stroke-width="2" stroke-opacity="1"></use></g></g><g><use xlink:href="#i5fqRysi1D" opacity="1" fill="#b5f6b5" fill-opacity="0.65"></use><g><use xlink:href="#i5fqRysi1D" opacity="1" fill-opacity="0" stroke="#d575f4" stroke-width="2" stroke-opacity="1"></use></g></g><g><use xlink:href="#bqQ0rJDvY" opacity="1" fill="#b5f6b5" fill-opacity="0.65"></use><g><use xlink:href="#bqQ0rJDvY" opacity="1" fill-opacity="0" stroke="#d575f4" stroke-width="2" stroke-opacity="1"></use></g></g></g></g></svg>