<?xml version="1.0" encoding="UTF-8" standalone="no"?>
<!DOCTYPE svg PUBLIC "-//W3C//DTD SVG 1.1//EN" "http://www.w3.org/Graphics/SVG/1.1/DTD/svg11.dtd">
<svg version="1.1" xmlns="http://www.w3.org/2000/svg" xmlns:xlink="http://www.w3.org/1999/xlink" preserveAspectRatio="xMidYMid meet" viewBox="0 0 640 382" width="640" height="382"><defs><path d="M0 0L145.39 0L145.39 381.56L0 381.56L0 0Z" id="f1H7ooHyK"></path><path d="M164.61 0L310 0L310 381.56L164.61 381.56L164.61 0Z" id="bbiTnywiw"></path><path d="M329.22 0L474.61 0L474.61 381.56L329.22 381.56L329.22 0Z" id="a6DDqdfjpN"></path><path d="M494.61 0L640 0L640 381.56L494.61 381.56L494.61 0Z" id="d3TqmQf4Aa"></path><path d="M0 0L640 0L640 150.4L0 150.4L0 0Z" id="g698aocLYn"></path><path d="M0 169.43L145.39 169.43L145.39 381.56L0 381.56L0 169.43Z" id="dOCYflWx"></path><path d="M164.61 169.43L310 169.43L310 381.56L164.61 381.56L164.61 169.43Z" id="ajNJ4bn8q"></path><path d="M329.22 169.87L474.61 169.87L474.61 382L329.22 382L329.22 169.87Z" id="d2SQiJOeT"></path><path d="M494.61 169.87L640 169.87L640 382L494.61 382L494.61 169.87Z" id="d1uz90pkG"></path></defs><g><g><g><use xlink:href="#f1H7ooHyK" opacity="1" fill="#6495ed" fill-opacity="1"></use></g><g><use xlink:href="#bbiTnywiw" opacity="1" fill="#6495ed" fill-opacity="1"></use></g><g><use xlink:href="#a6DDqdfjpN" opacity="1" fill="#6495ed" fill-opacity="1"></use></g><g><use xlink:href="#d3TqmQf4Aa" opacity="1" fill="#6495ed" fill-opacity="1"></use></g><g><use xlink:href="#g698aocLYn" opacity="1" fill="#ff7b00" fill-opacity="0.55"></use></g><g><use xlink:href="#dOCYflWx" opacity="1" fill="#ff7b00" fill-opacity="0.55"></use></g><g><use xlink:href="#ajNJ4bn8q" opacity="1" fill="#ff7b00" fill-opacity="0.55"></use></g><g><use xlink:href="#d2SQiJOeT" opacity="1" fill="#ff7b00" fill-opacity="0.55"></use></g><g><use xlink:href="#d1uz90pkG" opacity="1" fill="#ff7b00" fill-opacity="0.55"></use></g></g></g></svg>