<?xml version="1.0" encoding="UTF-8" standalone="no"?>
<!DOCTYPE svg PUBLIC "-//W3C//DTD SVG 1.1//EN" "http://www.w3.org/Graphics/SVG/1.1/DTD/svg11.dtd">
<svg version="1.1" xmlns="http://www.w3.org/2000/svg" xmlns:xlink="http://www.w3.org/1999/xlink" preserveAspectRatio="xMidYMid meet" viewBox="0 0 640 382" width="640" height="382"><defs><path d="M0 0L145.39 0L145.39 381.56L0 381.56L0 0Z" id="c3z5cVrgW7"></path><path d="M164.61 0L310 0L310 381.56L164.61 381.56L164.61 0Z" id="c2S81T416q"></path><path d="M329.22 0L474.61 0L474.61 381.56L329.22 381.56L329.22 0Z" id="bknxtySF8"></path><path d="M494.61 0L640 0L640 381.56L494.61 381.56L494.61 0Z" id="d4kxTxtdLi"></path><path d="M0 0L145.39 0L145.39 88.15L0 88.15L0 0Z" id="aFRnSgmzX"></path><path d="M164.61 0L310 0L310 88.15L164.61 88.15L164.61 0Z" id="a1h2PRNN50"></path><path d="M329.22 0L474.61 0L474.61 88.15L329.22 88.15L329.22 0Z" id="bxBono2Kp"></path><path d="M494.61 0L640 0L640 88.15L494.61 88.15L494.61 0Z" id="b1sXObB8uz"></path><path d="M0 102.63L145.39 102.63L145.39 190.78L0 190.78L0 102.63Z" id="c4t9XS4tc4"></path><path d="M164.61 102.63L310 102.63L310 190.78L164.61 190.78L164.61 102.63Z" id="asHgyzVjm"></path><path d="M329.22 102.63L474.61 102.63L474.61 190.78L329.22 190.78L329.22 102.63Z" id="b5dFnIHyBu"></path><path d="M494.61 102.63L640 102.63L640 190.78L494.61 190.78L494.61 102.63Z" id="a1dKso1xZp"></path><path d="M0 206.97L145.39 206.97L145.39 295.12L0 295.12L0 206.97Z" id="l328IXviIU"></path><path d="M164.61 206.97L310 206.97L310 295.12L164.61 295.12L164.61 206.97Z" id="a2NAQSa7dy"></path><path d="M329.22 206.97L474.61 206.97L474.61 295.12L329.22 295.12L329.22 206.97Z" id="h3dKIu2tHS"></path><path d="M494.61 206.97L640 206.97L640 295.12L494.61 295.12L494.61 206.97Z" id="g1hMLrdCw0"></path></defs><g><g><g><use xlink:href="#c3z5cVrgW7" opacity="1" fill="#6495ed" fill-opacity="1"></use></g><g><use xlink:href="#c2S81T416q" opacity="1" fill="#6495ed" fill-opacity="1"></use></g><g><use xlink:href="#bknxtySF8" opacity="1" fill="#6495ed" fill-opacity="1"></use></g><g><use xlink:href="#d4kxTxtdLi" opacity="1" fill="#6495ed" fill-opacity="1"></use></g><g><use xlink:href="#aFRnSgmzX" opacity="1" fill="#acadc6" fill-opacity="1"></use><g><use xlink:href="#aFRnSgmzX" opacity="1" fill-opacity="0" stroke="#836232" stroke-width="0" stroke-opacity="1"></use></g></g><g><use xlink:href="#a1h2PRNN50" opacity="1" fill="#acadc6" fill-opacity="1"></use><g><use xlink:href="#a1h2PRNN50" opacity="1" fill-opacity="0" stroke="#836232" stroke-width="0" stroke-opacity="1"></use></g></g><g><use xlink:href="#bxBono2Kp" opacity="1" fill="#acadc6" fill-opacity="1"></use><g><use xlink:href="#bxBono2Kp" opacity="1" fill-opacity="0" stroke="#836232" stroke-width="0" stroke-opacity="1"></use></g></g><g><use xlink:href="#b1sXObB8uz" opacity="1" fill="#acadc6" fill-opacity="1"></use><g><use xlink:href="#b1sXObB8uz" opacity="1" fill-opacity="0" stroke="#836232" stroke-width="0" stroke-opacity="1"></use></g></g><g><use xlink:href="#c4t9XS4tc4" opacity="1" fill="#acadc6" fill-opacity="1"></use><g><use xlink:href="#c4t9XS4tc4" opacity="1" fill-opacity="0" stroke="#836232" stroke-width="0" stroke-opacity="1"></use></g></g><g><use xlink:href="#asHgyzVjm" opacity="1" fill="#acadc6" fill-opacity="1"></use><g><use xlink:href="#asHgyzVjm" opacity="1" fill-opacity="0" stroke="#836232" stroke-width="0" stroke-opacity="1"></use></g></g><g><use xlink:href="#b5dFnIHyBu" opacity="1" fill="#acadc6" fill-opacity="1"></use><g><use xlink:href="#b5dFnIHyBu" opacity="1" fill-opacity="0" stroke="#836232" stroke-width="0" stroke-opacity="1"></use></g></g><g><use xlink:href="#a1dKso1xZp" opacity="1" fill="#acadc6" fill-opacity="1"></use><g><use xlink:href="#a1dKso1xZp" opacity="1" fill-opacity="0" stroke="#836232" stroke-width="0" stroke-opacity="1"></use></g></g><g><use xlink:href="#l328IXviIU" opacity="1" fill="#acadc6" fill-opacity="1"></use><g><use xlink:href="#l328IXviIU" opacity="1" fill-opacity="0" stroke="#836232" stroke-width="0" stroke-opacity="1"></use></g></g><g><use xlink:href="#a2NAQSa7dy" opacity="1" fill="#acadc6" fill-opacity="1"></use><g><use xlink:href="#a2NAQSa7dy" opacity="1" fill-opacity="0" stroke="#836232" stroke-width="0" stroke-opacity="1"></use></g></g><g><use xlink:href="#h3dKIu2tHS" opacity="1" fill="#acadc6" fill-opacity="1"></use><g><use xlink:href="#h3dKIu2tHS" opacity="1" fill-opacity="0" stroke="#836232" stroke-width="0" stroke-opacity="1"></use></g></g><g><use xlink:href="#g1hMLrdCw0" opacity="1" fill="#acadc6" fill-opacity="1"></use><g><use xlink:href="#g1hMLrdCw0" opacity="1" fill-opacity="0" stroke="#836232" stroke-width="0" stroke-opacity="1"></use></g></g></g></g></svg>