<?xml version="1.0" encoding="UTF-8" standalone="no"?>
<!DOCTYPE svg PUBLIC "-//W3C//DTD SVG 1.1//EN" "http://www.w3.org/Graphics/SVG/1.1/DTD/svg11.dtd">
<svg version="1.1" xmlns="http://www.w3.org/2000/svg" xmlns:xlink="http://www.w3.org/1999/xlink" preserveAspectRatio="xMidYMid meet" viewBox="0 0 450 110" width="450" height="110"><defs><path d="M426.39 2.47C437.44 2.47 446.39 11.43 446.39 22.47C446.39 39.92 446.39 72.25 446.39 89.69C446.39 100.74 437.44 109.69 426.39 109.69C341.11 109.69 105.28 109.69 20 109.69C8.95 109.69 0 100.74 0 89.69C0 72.25 0 39.92 0 22.47C0 11.43 8.95 2.47 20 2.47C105.28 2.47 341.11 2.47 426.39 2.47Z" id="gdDG3kGME"></path><path d="M109.28 2.47C120.32 2.47 129.28 11.43 129.28 22.47C129.28 39.92 129.28 72.25 129.28 89.69C129.28 100.74 120.32 109.69 109.28 109.69C87.42 109.69 41.86 109.69 20 109.69C8.95 109.69 0 100.74 0 89.69C0 72.25 0 39.92 0 22.47C0 11.43 8.95 2.47 20 2.47C41.86 2.47 87.42 2.47 109.28 2.47Z" id="c38UsXOunY"></path><path d="M107.63 2.78L149.9 2.78L149.9 110L107.63 110L107.63 2.78Z" id="bfv9a9yz4"></path></defs><g><g><g><use xlink:href="#gdDG3kGME" opacity="1" fill="#2f2f33" fill-opacity="1"></use></g><g><use xlink:href="#c38UsXOunY" opacity="1" fill="#6495ed" fill-opacity="1"></use></g><g><use xlink:href="#bfv9a9yz4" opacity="1" fill="#2f2f33" fill-opacity="1"></use></g></g></g></svg>